<svg width="2145" height="1696" xmlns="http://www.w3.org/2000/svg" xmlns:xlink="http://www.w3.org/1999/xlink" xml:space="preserve" overflow="hidden"><g transform="translate(-1104 -710)"><g><path d="M2086.5 1429.5 2086.5 2294.83" stroke="#F6BE4E" stroke-width="20.625" stroke-linecap="butt" stroke-linejoin="miter" stroke-miterlimit="8" stroke-opacity="1" fill="none" fill-rule="evenodd"/><path d="M2911.5 1989.5 2911.5 2086.26C2911.5 2126.06 2862.8 2158.32 2802.74 2158.32 2631.32 2159.38 2459.91 2160.44 2288.5 2161.5" stroke="#62BCAD" stroke-width="20.625" stroke-linecap="butt" stroke-linejoin="miter" stroke-miterlimit="8" stroke-opacity="1" fill="none" fill-rule="evenodd"/><path d="M1991.5 2183.5C1820.09 2182.44 1648.68 2181.38 1477.26 2180.32 1417.2 2180.32 1368.5 2148.06 1368.5 2108.26L1368.5 2011.5" stroke="#CADC9A" stroke-width="20.625" stroke-linecap="butt" stroke-linejoin="miter" stroke-miterlimit="8" stroke-opacity="1" fill="none" fill-rule="evenodd"/><path d="M1681.01 1004C1738.88 1004.36 1791.73 1036.86 1818.1 1088.3L1825.8 1103.28 1841.72 1097.75C1907.17 1074.38 1979.19 1108.42 2002.58 1173.79 2007.44 1187.35 2009.93 1201.66 2009.93 1216.07L2009.93 1235.44 2039.03 1235.44C2092.82 1236.23 2135.78 1280.42 2134.99 1334.15 2134.21 1387.13 2091.11 1429.75 2038.06 1430L1493.86 1430 1476.58 1429.25C1407.05 1426.26 1353.12 1367.54 1356.12 1298.1 1357.22 1272.62 1366.05 1248.07 1381.43 1227.72L1381.43 1227.72C1405.63 1196.33 1442.91 1177.77 1482.57 1177.37 1489.23 1177.37 1495.88 1177.92 1502.46 1178.99L1524.99 1182.67 1524.99 1157.93C1525.51 1072.39 1595.37 1003.48 1681.01 1004Z" fill="#90B6E1" fill-rule="evenodd" fill-opacity="1"/><path d="M1937.01 711.003C1994.88 711.359 2047.73 743.936 2074.1 795.498L2081.8 810.517 2097.72 804.97C2163.17 781.548 2235.19 815.668 2258.58 881.184 2263.44 894.784 2265.93 909.12 2265.93 923.564L2265.93 942.982 2295.03 942.982C2348.82 943.774 2391.78 988.071 2390.99 1041.92 2390.21 1095.03 2347.11 1137.75 2294.06 1138L1749.86 1138 1732.58 1137.25C1663.05 1134.25 1609.12 1075.39 1612.12 1005.79 1613.22 980.25 1622.05 955.646 1637.43 935.24L1637.43 935.24C1661.63 903.777 1698.91 885.174 1738.57 884.776 1745.23 884.782 1751.88 885.324 1758.46 886.396L1780.99 890.086 1780.99 865.291C1781.51 779.552 1851.37 710.476 1937.01 711.003Z" fill="#F6BE4E" fill-rule="evenodd" fill-opacity="1"/><path d="M1413.99 1674C1468.28 1674.33 1517.88 1703.85 1542.62 1750.58L1549.85 1764.19 1564.8 1759.17C1626.21 1737.94 1693.79 1768.86 1715.74 1828.24 1720.3 1840.57 1722.63 1853.56 1722.64 1866.65L1722.64 1884.25 1749.94 1884.25C1800.42 1884.97 1840.73 1925.12 1839.99 1973.92 1839.26 2022.06 1798.82 2060.77 1749.03 2061L1238.37 2061 1222.15 2060.32C1156.91 2057.6 1106.3 2004.26 1109.11 1941.18 1110.14 1918.03 1118.43 1895.73 1132.86 1877.23L1132.86 1877.23C1155.57 1848.72 1190.56 1831.86 1227.78 1831.5 1234.02 1831.5 1240.26 1831.99 1246.43 1832.97L1267.57 1836.31 1267.57 1813.84C1268.07 1736.13 1333.62 1673.53 1413.99 1674Z" fill="#CADC9A" fill-rule="evenodd" fill-opacity="1"/><path d="M2848.79 1640C2899.67 1640.3 2946.15 1667.31 2969.34 1710.05L2976.11 1722.5 2990.11 1717.91C3047.66 1698.49 3110.99 1726.77 3131.56 1781.09 3135.83 1792.36 3138.02 1804.25 3138.02 1816.22L3138.02 1832.32 3163.61 1832.32C3210.91 1832.98 3248.69 1869.7 3247.99 1914.35 3247.3 1958.38 3209.41 1993.79 3162.75 1994L2684.23 1994 2669.03 1993.38C2607.89 1990.89 2560.47 1942.1 2563.1 1884.39 2564.07 1863.22 2571.83 1842.82 2585.36 1825.9L2585.36 1825.9C2606.64 1799.82 2639.42 1784.4 2674.3 1784.07 2680.16 1784.07 2686 1784.52 2691.78 1785.41L2711.59 1788.47 2711.59 1767.91C2712.06 1696.83 2773.48 1639.57 2848.79 1640Z" fill="#62BCAD" fill-rule="evenodd" fill-opacity="1"/><path d="M2378.01 781.003C2435.88 781.358 2488.73 813.859 2515.1 865.3L2522.8 880.284 2538.72 874.75C2604.17 851.382 2676.19 885.423 2699.58 950.785 2704.44 964.353 2706.93 978.656 2706.93 993.066L2706.93 1012.44 2736.03 1012.44C2789.82 1013.23 2832.78 1057.42 2831.99 1111.15 2831.21 1164.13 2788.11 1206.75 2735.06 1207L2190.86 1207 2173.58 1206.25C2104.05 1203.26 2050.12 1144.54 2053.12 1075.1 2054.22 1049.62 2063.05 1025.07 2078.43 1004.71L2078.43 1004.71C2102.63 973.326 2139.91 954.766 2179.57 954.369 2186.23 954.375 2192.88 954.915 2199.46 955.986L2221.99 959.666 2221.99 934.93C2222.51 849.392 2292.37 780.477 2378.01 781.003Z" fill="#747474" fill-rule="evenodd" fill-opacity="1"/><path d="M2657.6 992.003C2715.38 992.358 2768.17 1024.86 2794.5 1076.3L2802.2 1091.28 2818.1 1085.75C2883.46 1062.38 2955.39 1096.42 2978.75 1161.79 2983.61 1175.35 2986.09 1189.66 2986.09 1204.07L2986.09 1223.44 3015.15 1223.44C3068.87 1224.23 3111.78 1268.42 3110.99 1322.15 3110.21 1375.13 3067.17 1417.75 3014.18 1418L2470.69 1418 2453.43 1417.25C2383.99 1414.26 2330.13 1355.54 2333.12 1286.1 2334.22 1260.62 2343.03 1236.07 2358.4 1215.72L2358.4 1215.72C2382.56 1184.33 2419.8 1165.77 2459.41 1165.37 2466.06 1165.37 2472.7 1165.92 2479.27 1166.99L2501.77 1170.67 2501.77 1145.93C2502.29 1060.39 2572.06 991.477 2657.6 992.003Z" fill="#A475C8" fill-rule="evenodd" fill-opacity="1"/><path d="M2082.01 1081C2139.88 1081.36 2192.73 1113.86 2219.1 1165.3L2226.8 1180.28 2242.72 1174.75C2308.17 1151.38 2380.19 1185.42 2403.58 1250.79 2408.44 1264.35 2410.93 1278.66 2410.93 1293.07L2410.93 1312.44 2440.02 1312.44C2493.82 1313.23 2536.78 1357.42 2535.99 1411.15 2535.21 1464.13 2492.11 1506.75 2439.06 1507L1894.86 1507 1877.58 1506.25C1808.05 1503.26 1754.12 1444.54 1757.12 1375.1 1758.22 1349.62 1767.05 1325.07 1782.43 1304.72L1782.43 1304.72C1806.63 1273.33 1843.91 1254.77 1883.57 1254.37 1890.23 1254.37 1896.88 1254.92 1903.46 1255.99L1925.99 1259.67 1925.99 1234.93C1926.51 1149.39 1996.37 1080.48 2082.01 1081Z" fill="#D46A5C" fill-rule="evenodd" fill-opacity="1"/><path d="M2152.5 1443.5 2152.5 2308.83" stroke="#D46A5C" stroke-width="20.625" stroke-linecap="butt" stroke-linejoin="miter" stroke-miterlimit="8" stroke-opacity="1" fill="none" fill-rule="evenodd"/><path d="M2207.5 1500.5 2207.5 2296.77" stroke="#747474" stroke-width="20.625" stroke-linecap="butt" stroke-linejoin="miter" stroke-miterlimit="8" stroke-opacity="1" fill="none" fill-rule="evenodd"/><path d="M1882.5 1804.5 1789.65 1804.5C1751.46 1804.5 1720.5 1773.36 1720.5 1734.96L1720.5 1430.5" stroke="#90B6E1" stroke-width="20.625" stroke-linecap="butt" stroke-linejoin="miter" stroke-miterlimit="8" stroke-opacity="1" fill="none" fill-rule="evenodd"/><path d="M1826.5 1804.5 1919.92 1804.5C1958.35 1804.5 1989.5 1832.07 1989.5 1866.08L1989.5 2308.5" stroke="#90B6E1" stroke-width="20.625" stroke-linecap="butt" stroke-linejoin="miter" stroke-miterlimit="8" stroke-opacity="1" fill="none" fill-rule="evenodd"/><path d="M2437.5 1300.5 2530.92 1300.5C2569.35 1300.5 2600.5 1335.88 2600.5 1379.52L2600.5 1725.48C2600.5 1769.12 2569.35 1804.5 2530.92 1804.5L2437.5 1804.5" stroke="#A475C8" stroke-width="20.625" stroke-linecap="butt" stroke-linejoin="miter" stroke-miterlimit="8" stroke-opacity="1" fill="none" fill-rule="evenodd"/><path d="M2328.5 2297.5 2328.5 1858.92C2328.5 1828.86 2359.65 1804.5 2398.08 1804.5L2491.5 1804.5" stroke="#A475C8" stroke-width="20.625" stroke-linecap="butt" stroke-linejoin="miter" stroke-miterlimit="8" stroke-opacity="1" fill="none" fill-rule="evenodd"/><path d="M1697 2129C1697 2106.36 1715.36 2088 1738 2088L2625 2088C2647.64 2088 2666 2106.36 2666 2129L2666 2293C2666 2315.64 2647.64 2334 2625 2334L1738 2334C1715.36 2334 1697 2315.64 1697 2293Z" stroke="#4472C4" stroke-width="10.3125" stroke-linecap="butt" stroke-linejoin="miter" stroke-miterlimit="8" stroke-opacity="1" fill="#FFFFFF" fill-rule="evenodd" fill-opacity="1"/><text fill="#4472C4" fill-opacity="1" font-family="Arial,Arial_MSFontService,sans-serif" font-style="normal" font-variant="normal" font-weight="400" font-stretch="normal" font-size="147" text-anchor="start" direction="ltr" writing-mode="lr-tb" unicode-bidi="normal" text-decoration="none" transform="matrix(1 0 0 1 1725.64 2282)">ADMETlab3.0</text><path d="M1598.16 1355.75C1581.69 1347.64 1568.55 1384.21 1550.01 1369.45 1538.06 1355.67 1551.44 1342.1 1546.95 1325.02 1528.55 1296.35 1541.54 1279.71 1541.23 1256.54 1540.91 1233.36 1522.83 1208.33 1545.08 1185.95 1556.81 1165.9 1583.08 1191.59 1601.95 1186.95 1620.83 1182.31 1635.85 1176.84 1652.56 1177 1669.27 1177.17 1687.34 1185.46 1702.2 1187.94 1717.06 1190.43 1742.36 1178.23 1754.25 1184.96 1766.14 1191.69 1751.36 1231.82 1756.18 1251.21 1761 1270.6 1754.16 1299.81 1753.29 1315.71 1752.41 1331.62 1761.58 1362.07 1753.76 1370.01 1745.95 1377.94 1695.28 1353.35 1687.85 1356.14" stroke="#FFFFFF" stroke-width="8.02083" stroke-linecap="butt" stroke-linejoin="miter" stroke-miterlimit="8" stroke-opacity="1" fill="none" fill-rule="evenodd"/><path d="M1564.23 1212.96C1564.3 1213.09 1583.01 1227.97 1591.51 1227.03 1600 1226.09 1613.05 1215.42 1621.99 1215.87 1630.94 1216.32 1636.18 1228.9 1645.18 1229.73 1654.19 1230.56 1666.86 1220.86 1676.03 1220.83 1685.2 1220.79 1691.3 1229.06 1700.2 1229.51 1709.11 1229.96 1717.36 1221.79 1727.78 1213.72" stroke="#FFFFFF" stroke-width="8.02083" stroke-linecap="butt" stroke-linejoin="miter" stroke-miterlimit="8" stroke-opacity="1" fill="none" fill-rule="evenodd"/><path d="M1586.94 1226C1576.59 1230.12 1566.23 1234.25 1563.69 1241.75 1561.14 1249.24 1559.93 1265.49 1571.68 1270.99 1583.43 1276.48 1634.19 1274.74 1634.19 1274.74L1634.19 1274.74 1640 1273.99" stroke="#FFFFFF" stroke-width="8.02083" stroke-linecap="butt" stroke-linejoin="miter" stroke-miterlimit="8" stroke-opacity="1" fill="none" fill-rule="evenodd"/><path d="M1616.86 1255.92C1654.65 1253.79 1689.98 1255.89 1708.14 1256.89 1726.3 1257.9 1722.3 1259.27 1725.81 1261.95 1729.32 1264.64 1727.97 1276.36 1726.2 1281.28 1724.43 1286.19 1723.39 1289 1715.21 1291.46 1707.03 1293.92 1696.79 1294.97 1677.12 1296.06 1657.46 1297.16 1631.18 1297.04 1597.23 1298.02 1576.45 1298.67 1586.35 1298.84 1596.24 1299" stroke="#FFFFFF" stroke-width="8.02083" stroke-linecap="round" stroke-linejoin="round" stroke-miterlimit="10" stroke-opacity="1" fill="none" fill-rule="evenodd"/><path d="M1576.64 1273C1566.37 1277.13 1563.94 1282.89 1562.98 1290.72 1562.03 1298.55 1559.26 1314.48 1570.91 1319.98 1582.56 1325.49 1632.87 1323.74 1632.87 1323.74L1632.87 1323.74 1711 1321.03" stroke="#FFFFFF" stroke-width="8.02083" stroke-linecap="round" stroke-linejoin="round" stroke-miterlimit="10" stroke-opacity="1" fill="none" fill-rule="evenodd"/><path d="M1712.89 1226.85C1720.31 1229.64 1722.04 1243.24 1716.77 1257.22" stroke="#FFFFFF" stroke-width="8.02083" stroke-linecap="butt" stroke-linejoin="miter" stroke-miterlimit="8" stroke-opacity="1" fill="none" fill-rule="evenodd"/><path d="M1573.37 1323C1569.44 1329.93 1565.52 1336.49 1567.56 1341.59 1569.6 1346.7 1573.77 1351.18 1585.61 1353.63 1597.45 1356.07 1628.8 1351.71 1638.59 1356.27 1648.39 1360.83 1643.9 1367.75 1644.39 1381" stroke="#FFFFFF" stroke-width="8.02083" stroke-linecap="round" stroke-linejoin="round" stroke-miterlimit="10" stroke-opacity="1" fill="none" fill-rule="evenodd"/><path d="M1718.35 1291C1730.93 1313.72 1713.7 1314.21 1714.98 1324.08 1716.27 1333.95 1730.81 1345.26 1726.04 1350.2 1721.27 1355.13 1695.87 1352.23 1686.37 1353.68 1676.87 1355.13 1672.23 1354.68 1669.06 1358.9 1665.88 1363.12 1667.33 1379 1667.33 1379" stroke="#FFFFFF" stroke-width="8.02083" stroke-linecap="round" stroke-linejoin="round" stroke-miterlimit="10" stroke-opacity="1" fill="none" fill-rule="evenodd"/><path d="M1635 1152 1634.5 1177.38 1631 1181" stroke="#FFFFFF" stroke-width="8.02083" stroke-linecap="butt" stroke-linejoin="miter" stroke-miterlimit="8" stroke-opacity="1" fill="none" fill-rule="evenodd"/><path d="M4.00013 0C3.33344 9.68194 2.66675 19.3639 2.00007 22.6252 1.33338 25.8865 0.666689 22.7271 0 19.5677" stroke="#FFFFFF" stroke-width="8.02083" stroke-linecap="butt" stroke-linejoin="miter" stroke-miterlimit="8" stroke-opacity="1" fill="none" fill-rule="evenodd" transform="matrix(-1 0 0 1 1666 1153)"/><path d="M2875 1887 2888.5 1860 2919.5 1860 2933 1887 2919.5 1914 2888.5 1914Z" stroke="#FFFFFF" stroke-width="8.02083" stroke-linecap="round" stroke-linejoin="round" stroke-miterlimit="10" stroke-opacity="1" fill="none" fill-rule="evenodd"/><path d="M2920 1860.5 2933.25 1834 2965.75 1834 2979 1860.5 2965.75 1887 2933.25 1887Z" stroke="#FFFFFF" stroke-width="8.02083" stroke-linecap="round" stroke-linejoin="round" stroke-miterlimit="10" stroke-opacity="1" fill="none" fill-rule="evenodd"/><path d="M2966 1887 2979.5 1860 3011.5 1860 3025 1887 3011.5 1914 2979.5 1914Z" stroke="#FFFFFF" stroke-width="8.02083" stroke-linecap="round" stroke-linejoin="round" stroke-miterlimit="10" stroke-opacity="1" fill="none" fill-rule="evenodd"/><path d="M2829 1860 2842.5 1833 2874.5 1833 2888 1860 2874.5 1887 2842.5 1887Z" stroke="#FFFFFF" stroke-width="8.02083" stroke-linecap="round" stroke-linejoin="round" stroke-miterlimit="10" stroke-opacity="1" fill="none" fill-rule="evenodd"/><path d="M2829 1806 2842.5 1779 2874.5 1779 2888 1806 2874.5 1833 2842.5 1833Z" stroke="#FFFFFF" stroke-width="8.02083" stroke-linecap="round" stroke-linejoin="round" stroke-miterlimit="10" stroke-opacity="1" fill="none" fill-rule="evenodd"/><path d="M2877 1780 2890.5 1753 2921.5 1753 2935 1780 2921.5 1807 2890.5 1807Z" stroke="#FFFFFF" stroke-width="8.02083" stroke-linecap="round" stroke-linejoin="round" stroke-miterlimit="10" stroke-opacity="1" fill="none" fill-rule="evenodd"/><path d="M2834 1742.15 2842.6 1725 2874.86 1725 2888 1752 2874.86 1779" stroke="#FFFFFF" stroke-width="8.02083" stroke-linecap="round" stroke-linejoin="round" stroke-miterlimit="10" stroke-opacity="1" fill="none" fill-rule="evenodd"/><path d="M2820 1752C2820 1747.03 2824.25 1743 2829.5 1743 2834.75 1743 2839 1747.03 2839 1752 2839 1756.97 2834.75 1761 2829.5 1761 2824.25 1761 2820 1756.97 2820 1752Z" stroke="#FFFFFF" stroke-width="8.02083" stroke-linecap="butt" stroke-linejoin="miter" stroke-miterlimit="8" stroke-opacity="1" fill="none" fill-rule="evenodd"/><path d="M2790 1863.5C2790 1858.25 2794.03 1854 2799 1854 2803.97 1854 2808 1858.25 2808 1863.5 2808 1868.75 2803.97 1873 2799 1873 2794.03 1873 2790 1868.75 2790 1863.5Z" stroke="#FFFFFF" stroke-width="8.02083" stroke-linecap="butt" stroke-linejoin="miter" stroke-miterlimit="8" stroke-opacity="1" fill="none" fill-rule="evenodd"/><path d="M2829.98 1861 2843 1887.5 2829.98 1914 2798.02 1914 2785 1887.5C2789.34 1878.67 2794.02 1871.18 2794.02 1871.18" stroke="#FFFFFF" stroke-width="8.02083" stroke-linecap="round" stroke-linejoin="round" stroke-miterlimit="10" stroke-opacity="1" fill="none" fill-rule="evenodd"/><path d="M2920 1913.74 2933.24 1887 2965.76 1887 2979 1913.74 2965.76 1940.49C2954.92 1940.49 2950.02 1941 2950.02 1941" stroke="#FFFFFF" stroke-width="8.02083" stroke-linecap="round" stroke-linejoin="round" stroke-miterlimit="10" stroke-opacity="1" fill="none" fill-rule="evenodd"/><path d="M2931 1939.5C2931 1934.25 2935.03 1930 2940 1930 2944.97 1930 2949 1934.25 2949 1939.5 2949 1944.75 2944.97 1949 2940 1949 2935.03 1949 2931 1944.75 2931 1939.5Z" stroke="#FFFFFF" stroke-width="8.02083" stroke-linecap="butt" stroke-linejoin="miter" stroke-miterlimit="8" stroke-opacity="1" fill="none" fill-rule="evenodd"/><path d="M13.4364 0 0 26.1596" stroke="#FFFFFF" stroke-width="8.02083" stroke-linecap="round" stroke-linejoin="round" stroke-miterlimit="10" stroke-opacity="1" fill="none" fill-rule="evenodd" transform="matrix(-0.530127 -0.847918 -0.847918 0.530127 2987.21 1818.91)"/><path d="M13.4364 0 0 26.1596" stroke="#FFFFFF" stroke-width="8.02083" stroke-linecap="round" stroke-linejoin="round" stroke-miterlimit="10" stroke-opacity="1" fill="none" fill-rule="evenodd" transform="matrix(0.442229 -0.896902 -0.896902 -0.442229 3004.4 1817.85)"/><path d="M13.4364 0 0 26.1596" stroke="#FFFFFF" stroke-width="8.02083" stroke-linecap="round" stroke-linejoin="round" stroke-miterlimit="10" stroke-opacity="1" fill="none" fill-rule="evenodd" transform="matrix(0.546133 0.837698 0.837698 -0.546133 3004.13 1793.34)"/><path d="M7.9999 0 0 14.9998" stroke="#FFFFFF" stroke-width="8.02083" stroke-linecap="round" stroke-linejoin="round" stroke-miterlimit="10" stroke-opacity="1" fill="none" fill-rule="evenodd" transform="matrix(1 -1.22465e-16 -1.22465e-16 -1 3018 1778)"/><path d="M3004 1754C3004 1749.03 3008.03 1745 3013 1745 3017.97 1745 3022 1749.03 3022 1754 3022 1758.97 3017.97 1763 3013 1763 3008.03 1763 3004 1758.97 3004 1754Z" stroke="#FFFFFF" stroke-width="8.02083" stroke-linecap="butt" stroke-linejoin="miter" stroke-miterlimit="8" stroke-opacity="1" fill="none" fill-rule="evenodd"/><rect x="1829" y="806" width="120" height="40.9999" stroke="#FFFFFF" stroke-width="8.02083" stroke-linecap="butt" stroke-linejoin="miter" stroke-miterlimit="8" stroke-opacity="1" fill="none"/><path d="M1851 847 1929 847 1929 1015.23 1928.55 1015.23 1928.06 1019.14C1924.12 1035.83 1908.3 1048.2 1889.57 1048 1870.87 1047.8 1855.36 1035.15 1851.78 1018.42L1851.44 1015.23 1851 1015.23 1851 1011.02Z" stroke="#FFFFFF" stroke-width="8.02083" stroke-linecap="butt" stroke-linejoin="miter" stroke-miterlimit="8" stroke-opacity="1" fill="none" fill-rule="evenodd"/><path d="M1849 917C1857.51 925.161 1866.02 933.323 1873.75 933.976 1881.49 934.628 1885.87 922.006 1895.42 920.917 1904.96 919.829 1917.98 923.638 1931 927.447" stroke="#FFFFFF" stroke-width="8.02083" stroke-linecap="butt" stroke-linejoin="miter" stroke-miterlimit="8" stroke-opacity="1" fill="none" fill-rule="evenodd"/><path d="M1881 985.5C1881 982.463 1884.36 980 1888.5 980 1892.64 980 1896 982.463 1896 985.5 1896 988.538 1892.64 991 1888.5 991 1884.36 991 1881 988.538 1881 985.5Z" stroke="#FFFFFF" stroke-width="8.02083" stroke-linecap="butt" stroke-linejoin="miter" stroke-miterlimit="8" stroke-opacity="1" fill="none" fill-rule="evenodd"/><path d="M1907 1011.5C1907 1008.46 1910.13 1006 1914 1006 1917.87 1006 1921 1008.46 1921 1011.5 1921 1014.54 1917.87 1017 1914 1017 1910.13 1017 1907 1014.54 1907 1011.5Z" stroke="#FFFFFF" stroke-width="8.02083" stroke-linecap="butt" stroke-linejoin="miter" stroke-miterlimit="8" stroke-opacity="1" fill="none" fill-rule="evenodd"/><path d="M1874 1027.5C1874 1024.46 1877.36 1022 1881.5 1022 1885.64 1022 1889 1024.46 1889 1027.5 1889 1030.54 1885.64 1033 1881.5 1033 1877.36 1033 1874 1030.54 1874 1027.5Z" stroke="#FFFFFF" stroke-width="8.02083" stroke-linecap="butt" stroke-linejoin="miter" stroke-miterlimit="8" stroke-opacity="1" fill="none" fill-rule="evenodd"/><path d="M1848 822 1848 836.728" stroke="#FFFFFF" stroke-width="8.02083" stroke-linecap="round" stroke-linejoin="round" stroke-miterlimit="10" stroke-opacity="1" fill="none" fill-rule="evenodd"/><path d="M1869 822 1869 836.728" stroke="#FFFFFF" stroke-width="8.02083" stroke-linecap="round" stroke-linejoin="round" stroke-miterlimit="10" stroke-opacity="1" fill="none" fill-rule="evenodd"/><path d="M1889 822 1889 836.728" stroke="#FFFFFF" stroke-width="8.02083" stroke-linecap="round" stroke-linejoin="round" stroke-miterlimit="10" stroke-opacity="1" fill="none" fill-rule="evenodd"/><path d="M1929 822 1929 836.728" stroke="#FFFFFF" stroke-width="8.02083" stroke-linecap="round" stroke-linejoin="round" stroke-miterlimit="10" stroke-opacity="1" fill="none" fill-rule="evenodd"/><path d="M1909 822 1909 836.728" stroke="#FFFFFF" stroke-width="8.02083" stroke-linecap="round" stroke-linejoin="round" stroke-miterlimit="10" stroke-opacity="1" fill="none" fill-rule="evenodd"/><path d="M1941 965C1941 936.834 1973.01 914 2012.5 914 2051.99 914 2084 936.834 2084 965 2084 993.167 2051.99 1016 2012.5 1016 1973.01 1016 1941 993.167 1941 965Z" stroke="#FFFFFF" stroke-width="8.02083" stroke-linecap="butt" stroke-linejoin="miter" stroke-miterlimit="8" stroke-opacity="1" fill="none" fill-rule="evenodd"/><path d="M1980 942C1980 933.164 1990.52 926 2003.5 926 2016.48 926 2027 933.164 2027 942 2027 950.837 2016.48 958 2003.5 958 1990.52 958 1980 950.837 1980 942Z" stroke="#FFFFFF" stroke-width="8.02083" stroke-linecap="butt" stroke-linejoin="miter" stroke-miterlimit="8" stroke-opacity="1" fill="none" fill-rule="evenodd"/><path d="M2009.22 937.947C2006.63 941.088 2001.06 940.771 1996.77 937.241" stroke="#FFFFFF" stroke-width="8.02083" stroke-linecap="round" stroke-linejoin="round" stroke-miterlimit="10" stroke-opacity="1" fill="none" fill-rule="evenodd"/><path d="M2026.37 996.957C2017.55 992.174 2014.82 980.133 2020.28 970.064 2025.73 959.994 2037.31 955.709 2046.14 960.492 2054.96 965.275 2057.69 977.316 2052.23 987.385 2046.78 997.455 2035.2 1001.74 2026.37 996.957Z" stroke="#FFFFFF" stroke-width="8.02083" stroke-linecap="butt" stroke-linejoin="miter" stroke-miterlimit="8" stroke-opacity="1" fill="none" fill-rule="evenodd"/><path d="M2036.76 972.828C2038.48 977.072 2036.17 982.016 2031.6 983.871" stroke="#FFFFFF" stroke-width="8.02083" stroke-linecap="round" stroke-linejoin="round" stroke-miterlimit="10" stroke-opacity="1" fill="none" fill-rule="evenodd"/><path d="M1961.71 964.702C1967.12 957.612 1979.81 958.201 1990.07 966.018 2000.34 973.834 2004.28 985.919 1998.87 993.009 1993.47 1000.1 1980.78 999.509 1970.52 991.693 1960.25 983.876 1956.31 971.792 1961.71 964.702Z" stroke="#FFFFFF" stroke-width="8.02083" stroke-linecap="butt" stroke-linejoin="miter" stroke-miterlimit="8" stroke-opacity="1" fill="none" fill-rule="evenodd"/><path d="M1983.38 984.044C1979.42 984.976 1975.18 981.348 1973.91 975.94" stroke="#FFFFFF" stroke-width="8.02083" stroke-linecap="round" stroke-linejoin="round" stroke-miterlimit="10" stroke-opacity="1" fill="none" fill-rule="evenodd"/><path d="M2044.71 1412.43C2029.06 1413.4 2015.96 1403.98 2012.37 1381.61 2008.79 1359.24 2009.55 1272.86 2020.38 1257.49 2029.86 1230.21 2051.44 1223.72 2073.53 1225.08 2095.62 1226.45 2125.98 1240.55 2159.1 1244.53 2192.23 1248.51 2254.21 1242.94 2272.29 1248.99 2290.36 1255.03 2290.69 1263.73 2283.33 1275.43 2275.97 1287.13 2258.78 1292.4 2240.36 1302.01 2221.94 1311.63 2216.71 1326.01 2194.8 1338.62 2172.88 1351.22 2131.26 1363.54 2106.24 1375.84 2081.23 1388.15 2060.35 1411.47 2044.71 1412.43Z" stroke="#FFFFFF" stroke-width="8.02083" stroke-linecap="butt" stroke-linejoin="miter" stroke-miterlimit="8" stroke-opacity="1" fill="none" fill-rule="evenodd"/><path d="M2174 1349.68 2174 1458 2149 1458 2149 1360.08 2152.09 1358.83C2156.08 1357.22 2160.06 1355.61 2163.94 1354ZM2149 1190 2174 1190 2174 1243.66 2173.04 1243.63C2168.23 1243.4 2163.73 1243.05 2159.66 1242.55L2149 1240.82Z" stroke="#FFFFFF" stroke-width="8.02083" stroke-linecap="round" stroke-linejoin="round" stroke-miterlimit="10" stroke-opacity="1" fill="none" fill-rule="evenodd"/><path d="M2183 1246C2190.6 1255.26 2199.4 1273.83 2201.6 1288.83 2203.8 1303.83 2196.2 1336 2196.2 1336L2196.2 1336" stroke="#FFFFFF" stroke-width="8.02083" stroke-linecap="butt" stroke-linejoin="miter" stroke-miterlimit="8" stroke-opacity="1" fill="none" fill-rule="evenodd"/><path d="M2040 1295.5C2040 1279.76 2043.58 1267 2048 1267" stroke="#FFFFFF" stroke-width="8.02083" stroke-linecap="round" stroke-linejoin="round" stroke-miterlimit="10" stroke-opacity="1" fill="none" fill-rule="evenodd"/><path d="M2055.1 1255.85C2059.83 1253.28 2064.15 1252.12 2064.76 1253.24" stroke="#FFFFFF" stroke-width="8.02083" stroke-linecap="round" stroke-linejoin="round" stroke-miterlimit="10" stroke-opacity="1" fill="none" fill-rule="evenodd"/><path d="M2097.99 1321.54 2101.97 1320.5C2102.19 1320.44 2102.42 1320.41 2102.65 1320.39L2107.25 1320.01 2112.73 1320.2 2115.41 1320.55C2117.61 1320.85 2119.14 1322.87 2118.84 1325.07 2118.54 1327.26 2116.52 1328.8 2114.32 1328.5L2114.32 1328.5 2112.41 1328.21 2107.91 1328 2103.31 1328.38 2103.99 1328.26 2100.01 1329.3C2097.87 1329.86 2095.68 1328.57 2095.12 1326.43 2094.56 1324.29 2095.85 1322.1 2097.99 1321.54ZM2131.84 1324.91 2133.58 1325.62 2137.63 1327.8C2137.85 1327.92 2138.07 1328.07 2138.26 1328.23L2143.85 1332.86C2144.04 1333.02 2144.21 1333.19 2144.37 1333.38L2146.14 1335.49C2147.56 1337.19 2147.33 1339.72 2145.63 1341.14 2143.93 1342.56 2141.4 1342.33 2139.98 1340.63L2138.22 1338.52 2138.73 1339.04 2133.15 1334.41 2133.78 1334.84 2130.55 1333.05 2128.81 1332.33C2126.76 1331.5 2125.77 1329.15 2126.61 1327.1 2127.45 1325.05 2129.79 1324.07 2131.84 1324.91ZM2152.86 1352.5 2153 1354.74C2153.15 1356.95 2151.47 1358.86 2149.26 1359 2147.05 1359.15 2145.14 1357.47 2145 1355.26L2144.85 1353.02C2144.71 1350.81 2146.38 1348.91 2148.59 1348.76 2150.8 1348.62 2152.71 1350.29 2152.86 1352.5Z" fill="#FFFFFF" fill-rule="nonzero" fill-opacity="1"/><path d="M2066 1405.91C2067.45 1418.78 2078.09 1432.01 2087.64 1435.82 2097.19 1439.63 2113.36 1433.42 2123.3 1428.77 2133.24 1424.12 2142.03 1410.88 2147.26 1407.92L2148 1401" stroke="#FFFFFF" stroke-width="8.02083" stroke-linecap="butt" stroke-linejoin="miter" stroke-miterlimit="8" stroke-opacity="1" fill="none" fill-rule="evenodd"/><path d="M2094 1383 2094 1415.43" stroke="#FFFFFF" stroke-width="8.02083" stroke-linecap="round" stroke-linejoin="round" stroke-miterlimit="10" stroke-opacity="1" fill="none" fill-rule="evenodd"/><path d="M2122 1368 2122 1400.43" stroke="#FFFFFF" stroke-width="8.02083" stroke-linecap="round" stroke-linejoin="round" stroke-miterlimit="10" stroke-opacity="1" fill="none" fill-rule="evenodd"/><path d="M0 0 73.1482 0.16168" stroke="#FFFFFF" stroke-width="8.02083" stroke-linecap="round" stroke-linejoin="round" stroke-miterlimit="10" stroke-opacity="1" fill="none" fill-rule="evenodd" transform="matrix(1 0 0 -1 1359 1766.16)"/><path d="M1363.16 1766 1428.79 1766 1428.79 1859.46 1450.44 1874.1 1453 1877.22 1441.49 1904.32C1427.34 1937.39 1414.47 1967.99 1414.19 1981.42 1414 1990.37 1417.34 1996.65 1422.82 2001.03L1425.73 2002.61 1425.41 2002.79C1415.98 2006.79 1405.63 2009 1394.75 2009 1351.26 2009 1316 1973.62 1316 1929.98 1316 1908.16 1324.81 1888.4 1339.07 1874.1L1363.16 1857.8Z" stroke="#FFFFFF" stroke-width="8.02083" stroke-linecap="butt" stroke-linejoin="miter" stroke-miterlimit="8" stroke-opacity="1" fill="none" fill-rule="evenodd"/><path d="M1335.25 1908 1440 1908 1430.29 1931.21C1422.33 1950.98 1416.59 1967.49 1416.4 1976.4L1417.83 1983.91 1415.43 1985.21C1408.16 1988.3 1400.16 1990 1391.77 1990 1358.21 1990 1331 1962.73 1331 1929.1Z" stroke="#FFFFFF" stroke-width="8.02083" stroke-linecap="butt" stroke-linejoin="miter" stroke-miterlimit="8" stroke-opacity="1" fill="none" fill-rule="evenodd"/><path d="M1394 1845C1394 1839.48 1398.7 1835 1404.5 1835 1410.3 1835 1415 1839.48 1415 1845 1415 1850.52 1410.3 1855 1404.5 1855 1398.7 1855 1394 1850.52 1394 1845Z" stroke="#FFFFFF" stroke-width="8.02083" stroke-linecap="butt" stroke-linejoin="miter" stroke-miterlimit="8" stroke-opacity="1" fill="none" fill-rule="evenodd"/><path d="M1376 1880.5C1376 1873.04 1381.6 1867 1388.5 1867 1395.4 1867 1401 1873.04 1401 1880.5 1401 1887.96 1395.4 1894 1388.5 1894 1381.6 1894 1376 1887.96 1376 1880.5Z" stroke="#FFFFFF" stroke-width="8.02083" stroke-linecap="butt" stroke-linejoin="miter" stroke-miterlimit="8" stroke-opacity="1" fill="none" fill-rule="evenodd"/><path d="M1341 1894C1341 1889.58 1344.58 1886 1349 1886 1353.42 1886 1357 1889.58 1357 1894 1357 1898.42 1353.42 1902 1349 1902 1344.58 1902 1341 1898.42 1341 1894Z" stroke="#FFFFFF" stroke-width="8.02083" stroke-linecap="butt" stroke-linejoin="miter" stroke-miterlimit="8" stroke-opacity="1" fill="none" fill-rule="evenodd"/><path d="M1465.2 1788 1521.3 1788C1520.88 1809.81 1520.47 1831.61 1520.05 1853.42L1531.81 1878.18C1546.7 1921.2 1572.38 1960.44 1572 1978.22 1571.24 2013.79 1547.35 2005.55 1494.04 2004.29 1470.89 2004.29 1415.25 2011.26 1416.01 1975.69 1416.39 1957.91 1439.11 1909.81 1457.42 1865.99L1465.2 1848.17 1465.2 1788Z" stroke="#FFFFFF" stroke-width="8.02083" stroke-linecap="butt" stroke-linejoin="miter" stroke-miterlimit="8" stroke-opacity="1" fill="none" fill-rule="evenodd"/><path d="M1552 1990 1442 1990 1464 1908 1530 1908Z" stroke="#FFFFFF" stroke-width="8.02083" stroke-linecap="round" stroke-linejoin="round" stroke-miterlimit="10" stroke-opacity="1" fill="none" fill-rule="evenodd"/><path d="M0 0 70.6068 0.000721785" stroke="#FFFFFF" stroke-width="8.02083" stroke-linecap="round" stroke-linejoin="round" stroke-miterlimit="10" stroke-opacity="1" fill="none" fill-rule="evenodd" transform="matrix(1 0 0 -1 1455 1788)"/><path d="M2375.19 848.026C2393.35 848.593 2423.32 856.588 2433.77 868.152 2454.39 890.991 2456.13 907.227 2455.99 939.583L2455.52 939.581 2455.99 942.158 2455.99 979.598C2455.99 984.768 2452.2 988.959 2447.53 988.959 2435.76 990.23 2423.21 987.767 2416.56 992.774 2409.91 997.78 2417.1 1008.16 2407.62 1019L2343.05 1018.36C2331.04 1013.57 2341.07 995.131 2334.3 990.23 2328.68 986.16 2308.06 990.519 2302.47 988.959 2297.79 988.959 2294 984.768 2294 979.598L2294 942.158 2294.55 939.155 2294 939.155C2294 906.794 2299.98 881.1 2324.8 864.75 2337.5 856.386 2357.03 847.459 2375.19 848.026Z" stroke="#FFFFFF" stroke-width="8.02083" stroke-linecap="butt" stroke-linejoin="miter" stroke-miterlimit="8" stroke-opacity="1" fill="none" fill-rule="evenodd"/><path d="M2319 919 2360 919 2360 944C2360 946.761 2357.76 949 2355 949L2314 949 2314 924C2314 921.238 2316.24 919 2319 919Z" stroke="#FFFFFF" stroke-width="8.02083" stroke-linecap="round" stroke-linejoin="round" stroke-miterlimit="10" stroke-opacity="1" fill="none" fill-rule="evenodd"/><path d="M5.00019 0 46.0001 0 46.0001 25.0003C46.0001 27.7618 43.7614 30.0005 40.9999 30.0005L0 30.0005 0 5.00019C-7.32053e-16 2.23866 2.23866 0 5.00019 0Z" stroke="#FFFFFF" stroke-width="8.02083" stroke-linecap="round" stroke-linejoin="round" stroke-miterlimit="10" stroke-opacity="1" fill="none" fill-rule="evenodd" transform="matrix(-1 0 0 1 2439 919)"/><path d="M2365 975 2377.5 956 2390 975Z" stroke="#FFFFFF" stroke-width="8.02083" stroke-linecap="round" stroke-linejoin="round" stroke-miterlimit="10" stroke-opacity="1" fill="none" fill-rule="evenodd"/><path d="M2349 991 2349 1009.11" stroke="#FFFFFF" stroke-width="8.02083" stroke-linecap="round" stroke-linejoin="round" stroke-miterlimit="10" stroke-opacity="1" fill="none" fill-rule="evenodd"/><path d="M2367 991 2367 1009.11" stroke="#FFFFFF" stroke-width="8.02083" stroke-linecap="round" stroke-linejoin="round" stroke-miterlimit="10" stroke-opacity="1" fill="none" fill-rule="evenodd"/><path d="M2384 991 2384 1009.11" stroke="#FFFFFF" stroke-width="8.02083" stroke-linecap="round" stroke-linejoin="round" stroke-miterlimit="10" stroke-opacity="1" fill="none" fill-rule="evenodd"/><path d="M2401 991 2401 1009.11" stroke="#FFFFFF" stroke-width="8.02083" stroke-linecap="round" stroke-linejoin="round" stroke-miterlimit="10" stroke-opacity="1" fill="none" fill-rule="evenodd"/><path d="M2481 978C2481 971.373 2486.82 966 2494 966 2501.18 966 2507 971.373 2507 978 2507 984.627 2501.18 990 2494 990 2486.82 990 2481 984.627 2481 978Z" stroke="#FFFFFF" stroke-width="8.02083" stroke-linecap="butt" stroke-linejoin="miter" stroke-miterlimit="8" stroke-opacity="1" fill="none" fill-rule="evenodd"/><path d="M2289.38 1020C2297.34 1020 2303.78 1025.06 2303.78 1031.31L2301.35 1035.92 2373.33 1060.14 2448.38 1038.54 2446.8 1035.54C2446.8 1029.3 2453.25 1024.23 2461.2 1024.23 2469.16 1024.23 2475.61 1029.3 2475.61 1035.54 2475.61 1038.66 2474 1041.49 2471.39 1043.54L2467.06 1045.83 2467.62 1047.16 2469.6 1046.85C2477.56 1046.85 2484.01 1051.91 2484.01 1058.16 2484.01 1064.4 2477.56 1069.46 2469.6 1069.46 2465.62 1069.46 2462.02 1068.2 2459.42 1066.15L2457.02 1061.61 2414.26 1073.92 2459.73 1089.23 2461.41 1086.05C2464.02 1084 2467.62 1082.73 2471.6 1082.73 2479.55 1082.73 2486 1087.8 2486 1094.04 2486 1100.29 2479.55 1105.35 2471.6 1105.35L2466.4 1104.52 2466.09 1105.16 2466.8 1105.27C2471.97 1106.99 2475.6 1111.01 2475.6 1115.69 2475.6 1121.94 2469.15 1127 2461.19 1127 2453.24 1127 2446.79 1121.94 2446.79 1115.69L2448.92 1111.64 2372.53 1085.93 2295.24 1108.18 2296.96 1111.45C2296.96 1117.69 2290.51 1122.76 2282.56 1122.76 2274.6 1122.76 2268.15 1117.69 2268.15 1111.45 2268.15 1106.77 2271.78 1102.75 2276.95 1101.03L2277.73 1100.91 2277.33 1099.97 2276.01 1100.67C2274.29 1101.24 2272.39 1101.56 2270.4 1101.56 2262.45 1101.56 2256 1096.49 2256 1090.25 2256 1084.01 2262.45 1078.94 2270.4 1078.94 2274.38 1078.94 2277.98 1080.21 2280.59 1082.25L2282.69 1086.23 2331.6 1072.15 2285.79 1056.73 2284.68 1058.83C2282.07 1060.88 2278.47 1062.15 2274.49 1062.15 2266.53 1062.15 2260.09 1057.08 2260.09 1050.84 2260.09 1044.59 2266.53 1039.53 2274.49 1039.53 2276.48 1039.53 2278.37 1039.85 2280.1 1040.42L2280.98 1040.89 2281.23 1040.38 2279.19 1039.3C2276.59 1037.26 2274.97 1034.43 2274.97 1031.31 2274.97 1025.06 2281.42 1020 2289.38 1020Z" stroke="#FFFFFF" stroke-width="8.02083" stroke-linecap="butt" stroke-linejoin="miter" stroke-miterlimit="8" stroke-opacity="1" fill="none" fill-rule="evenodd"/><path d="M2231 966 2265.12 992.628" stroke="#FFFFFF" stroke-width="8.02083" stroke-linecap="butt" stroke-linejoin="miter" stroke-miterlimit="8" stroke-opacity="1" fill="none" fill-rule="evenodd"/><path d="M0 0 27.6144 32.4969" stroke="#FFFFFF" stroke-width="8.02083" stroke-linecap="butt" stroke-linejoin="miter" stroke-miterlimit="8" stroke-opacity="1" fill="none" fill-rule="evenodd" transform="matrix(-1 0 0 1 2262.61 962)"/><path d="M2649.52 1120.14C2666.77 1117.94 2687.91 1122.91 2696.88 1132.11 2709.58 1160.67 2701.72 1190.3 2699.92 1213.23 2710.31 1242.67 2710.98 1249.63 2706.87 1266.37L2706.49 1267.83 2705.55 1264.6C2698.38 1249.09 2678.04 1228.9 2660.84 1222.55 2643.63 1216.21 2607.91 1211.55 2597.04 1222.87L2596.82 1223.19 2596.37 1215.3C2595.86 1206.95 2595.19 1198.59 2594 1190.5 2590.82 1165.35 2617.02 1134.56 2634.17 1124.83 2638.46 1122.4 2643.77 1120.87 2649.52 1120.14Z" stroke="#FFFFFF" stroke-width="8.02083" stroke-linecap="butt" stroke-linejoin="miter" stroke-miterlimit="8" stroke-opacity="1" fill="none" fill-rule="evenodd"/><path d="M2598.38 1278.27C2589.26 1260.78 2589.8 1231.26 2600.08 1221.75 2610.36 1212.23 2643.92 1215.95 2660.07 1221.18 2676.21 1226.4 2695.13 1223.2 2701.8 1236.13 2708.46 1249.06 2699.18 1298.29 2690.9 1307.9 2682.63 1317.5 2670.91 1326.16 2654.78 1326.7 2638.65 1327.23 2607.49 1295.76 2598.38 1278.27Z" stroke="#FFFFFF" stroke-width="8.02083" stroke-linecap="butt" stroke-linejoin="miter" stroke-miterlimit="8" stroke-opacity="1" fill="none" fill-rule="evenodd"/><path d="M58.7903 0.204836C76.118-1.19921 97.0125 4.73363 105.551 14.335 116.936 43.441 107.729 72.6839 104.884 95.5095 113.91 125.388 114.266 132.373 109.391 148.902L108.943 150.347 108.153 147.075C101.698 131.258 82.3106 110.156 65.4114 103.032 48.5125 95.908 13.047 89.6243 1.66245 100.432L1.43161 100.741 1.34845 92.8385C1.22139 84.4726 0.930796 76.0873 0.105421 67.9576-1.9177 42.6851 25.667 13.1274 43.2413 4.1903 47.6349 1.95607 53.0145 0.67285 58.7903 0.204836Z" stroke="#FFFFFF" stroke-width="8.02083" stroke-linecap="butt" stroke-linejoin="miter" stroke-miterlimit="8" stroke-opacity="1" fill="none" fill-rule="evenodd" transform="matrix(-0.998307 -0.0581596 -0.0581596 0.998307 2852.18 1126.98)"/><path d="M5.62805 61.2452C-3.40814 43.3551-1.35461 13.8932 10.2902 4.85758 21.935-4.17802 58.2114 1.07553 75.4969 7.03146 92.7823 12.9874 111.036 13.9845 117.64 27.2089 124.243 40.4334 114.156 85.857 104.691 95.0738 95.225 104.291 82.0604 112.402 64.5073 112.198 46.9542 111.995 14.6642 79.1352 5.62805 61.2452Z" stroke="#FFFFFF" stroke-width="8.02083" stroke-linecap="butt" stroke-linejoin="miter" stroke-miterlimit="8" stroke-opacity="1" fill="none" fill-rule="evenodd" transform="matrix(-0.998307 -0.0581596 -0.0581596 0.998307 2852.84 1223.27)"/><path d="M2739.09 1196 2742 1214.14C2734.4 1239.12 2726.68 1277.81 2729.24 1289.73L2727.23 1360.19 2725.49 1376.76C2722.79 1379.65 2714.1 1379.58 2711 1377.49 2707.91 1375.41 2711.51 1385.85 2709.68 1357.74 2707.84 1329.63 2709.12 1238.81 2700 1208.83L2701.8 1197.61 2708.02 1202.06C2712.28 1205.92 2716.03 1211.11 2718.77 1217.76 2722.19 1209.45 2727.13 1203.42 2732.63 1199.42L2739.09 1196Z" stroke="#FFFFFF" stroke-width="8.02083" stroke-linecap="butt" stroke-linejoin="miter" stroke-miterlimit="8" stroke-opacity="1" fill="none" fill-rule="evenodd"/></g></g></svg>